<?xml version="1.0"?>
<svg xmlns="http://www.w3.org/2000/svg" xmlns:xlink="http://www.w3.org/1999/xlink" xmlns:lucid="lucid" width="951.76" height="427.34">
  <g transform="translate(-38.70900347108115 -425.7734328096319)" lucid:page-tab-id="0_0">
    <path d="M58.7 468.8a6 6 0 0 1 6-6h181.65a6 6 0 0 1 6 6v358.3a6 6 0 0 1-6 6H64.7a6 6 0 0 1-6-6z" stroke="#3a414a" fill="#fcfcca"/>
    <path d="M242.35 472.8h-15v20h15z" stroke="#3a414a" fill="#fcfcca"/>
    <path d="M232.35 476.14h-10v3.33h10zm0 10h-10v3.33h10z" stroke="#3a414a" fill="#fcfcca"/>
    <use xlink:href="#a" transform="matrix(1,0,0,1,58.70900347108115,462.8059262655242) translate(57.07166666666666 194.6173611111111)"/>
    <path d="M300.2 496.54a6 6 0 0 1 6-6h381.35a6 6 0 0 1 6 6v266.84a6 6 0 0 1-6 6H306.2a6 6 0 0 1-6-6z" stroke="#3a414a" fill="#fff"/>
    <path d="M499 593.15a.25.25 0 0 1 .25.25v64.94a.25.25 0 0 1-.25.25.25.25 0 0 1-.25-.26V593.4a.25.25 0 0 1 .25-.25z" stroke="#3a414a" stroke-width=".5" fill="none"/>
    <path d="M773.1 468.8a6 6 0 0 1 6-6h185.37a6 6 0 0 1 6 6v358.3a6 6 0 0 1-6 6H779.1a6 6 0 0 1-6-6z" stroke="#3a414a" fill="#fcfcca"/>
    <path d="M960.47 472.8h-15v20h15z" stroke="#3a414a" fill="#fcfcca"/>
    <path d="M950.47 476.14h-10v3.33h10zm0 10h-10v3.33h10z" stroke="#3a414a" fill="#fcfcca"/>
    <use xlink:href="#b" transform="matrix(1,0,0,1,773.0989674397916,462.8059262655239) translate(16.01611111111111 194.6173611111111)"/>
    <path d="M771.17 800h-5.93m-11.85 0h-11.86m-11.85 0h-11.86M706 800h-11.86m-11.85 0h-11.86m-11.85 0h-11.86m-11.85 0h-11.86m-11.85 0h-11.86m-11.85 0h-11.86m-11.85 0h-11.86m-11.85 0h-11.86m-11.85 0h-11.86m-11.85 0h-11.86M469 800h-11.86m-11.85 0h-11.86m-11.85 0h-11.86m-11.85 0h-11.86m-11.85 0h-11.86m-11.85 0h-11.86m-11.85 0h-11.86m-11.85 0h-11.86m-11.85 0h-5.93" stroke="#6db1ff" stroke-width="3" fill="none"/>
    <path d="M772.67 801.5h-1.54v-3h1.54z" stroke="#6db1ff" stroke-width=".05" fill="#6db1ff"/>
    <path d="M257.7 800l14.27-4.64v9.28z" stroke="#6db1ff" stroke-width="3" fill="#6db1ff"/>
    <use xlink:href="#c" transform="matrix(1,0,0,1,449.6821809746986,803.9998253615083) translate(0 16.56888888888889)"/>
    <use xlink:href="#d" transform="matrix(1,0,0,1,449.6821809746986,803.9998253615083) translate(61.777777777777786 16.56888888888889)"/>
    <path d="M253.32 640h105.96" stroke="#3a414a" fill="none"/>
    <path d="M253.33 640.5h-.5v-1h.5zM359.78 640.5h-.5v-1h.5z" stroke="#3a414a" stroke-width=".05" fill="#3a414a"/>
    <path d="M634.48 638.54h121.77" stroke="#3a414a" fill="none"/>
    <path d="M634.5 639.04h-.52v-1h.5z" stroke="#3a414a" stroke-width=".05" fill="#3a414a"/>
    <path d="M771.02 638.54l-14.27 4.63v-9.27z" stroke="#3a414a" fill="#3a414a"/>
    <path d="M372.92 451.77a6 6 0 0 1 6-6h228a6 6 0 0 1 6 6v48a6 6 0 0 1-6 6h-228a6 6 0 0 1-6-6z" stroke="#000" stroke-opacity="0" fill="#fff" fill-opacity="0"/>
    <use xlink:href="#e" transform="matrix(1,0,0,1,377.92084304863386,450.7734328096319) translate(45.77777777777777 33.21111111111111)"/>
    <use xlink:href="#f" transform="matrix(1,0,0,1,377.92084304863386,450.7734328096319) translate(136.2 33.21111111111111)"/>
    <path d="M496.55 556.2l-1.37 1.53m-2.73 3.03l-2.73 3.04m-2.73 3.04l-2.74 3.03m-2.73 3.04l-2.73 3.04m-2.73 3.04l-2.73 3.04m-2.74 3.03l-2.73 3.04m-2.73 3.02l-2.73 3.04m-2.72 3.04l-2.73 3.03m-2.73 3.04l-2.73 3.03m-2.74 3.04l-2.73 3.04m-2.73 3.03l-2.73 3.05m-2.73 3.03l-2.73 3.04m-2.73 3.04l-2.73 3.03m-2.73 3.03l-2.72 3.03m-2.73 3.04l-2.73 3.04m-2.73 3.03l-2.74 3.04m-2.73 3.04l-1.37 1.52" stroke="#4c535d" fill="none"/>
    <path d="M496.9 556.55l-.73-.66.04-.06h1.35z" stroke="#4c535d" stroke-width=".05" fill="#4c535d"/>
    <path d="M409.17 653.35l-.34.38" stroke="#4c535d" fill="none"/>
    <path d="M360.28 556.34H600l33.48 33.47v133.87h-273.2z" stroke="#3a414a" fill="#f2f3f5"/>
    <path d="M600 556.8v33h33" stroke="#3a414a" fill="#f2f3f5"/>
    <use xlink:href="#g" transform="matrix(1,0,0,1,365.2824929001104,561.3383511735169) translate(0 10.664062499999996)"/>
    <use xlink:href="#h" transform="matrix(1,0,0,1,365.2824929001104,561.3383511735169) translate(0 26.66406249999999)"/>
    <use xlink:href="#i" transform="matrix(1,0,0,1,365.2824929001104,561.3383511735169) translate(0 42.664062499999986)"/>
    <use xlink:href="#j" transform="matrix(1,0,0,1,365.2824929001104,561.3383511735169) translate(32.00520833333332 42.664062499999986)"/>
    <use xlink:href="#k" transform="matrix(1,0,0,1,365.2824929001104,561.3383511735169) translate(160.0260416666666 42.664062499999986)"/>
    <use xlink:href="#i" transform="matrix(1,0,0,1,365.2824929001104,561.3383511735169) translate(0 58.66406249999997)"/>
    <use xlink:href="#l" transform="matrix(1,0,0,1,365.2824929001104,561.3383511735169) translate(32.00520833333332 58.66406249999997)"/>
    <use xlink:href="#m" transform="matrix(1,0,0,1,365.2824929001104,561.3383511735169) translate(176.0286458333333 58.66406249999997)"/>
    <use xlink:href="#n" transform="matrix(1,0,0,1,365.2824929001104,561.3383511735169) translate(0 74.66406249999997)"/>
    <use xlink:href="#o" transform="matrix(1,0,0,1,365.2824929001104,561.3383511735169) translate(64.01041666666664 74.66406249999997)"/>
    <use xlink:href="#p" transform="matrix(1,0,0,1,365.2824929001104,561.3383511735169) translate(152.02473958333326 74.66406249999997)"/>
    <use xlink:href="#i" transform="matrix(1,0,0,1,365.2824929001104,561.3383511735169) translate(0 90.66406249999997)"/>
    <use xlink:href="#q" transform="matrix(1,0,0,1,365.2824929001104,561.3383511735169) translate(32.00520833333332 90.66406249999997)"/>
    <use xlink:href="#r" transform="matrix(1,0,0,1,365.2824929001104,561.3383511735169) translate(0 106.66406249999997)"/>
    <path d="M254.3 529.33h5.92m11.85 0h11.85m11.85 0h11.85m11.85 0h11.85m11.85 0h11.85m11.85 0h11.85m11.85 0h11.85m11.85 0h11.85m11.85 0h11.85m11.85 0h11.85m11.85 0h11.85m11.85 0h11.85m11.85 0h11.85m11.85 0h11.85m11.85 0h11.85m11.85 0h11.85m11.85 0h11.85m11.85 0h11.85m11.85 0h11.85m11.85 0h11.85m11.85 0h11.85m11.85 0H752" stroke="#6db1ff" stroke-width="3" fill="none"/>
    <path d="M254.33 530.83h-1.54v-3h1.53z" stroke="#6db1ff" stroke-width=".05" fill="#6db1ff"/>
    <path d="M767.76 529.33l-14.27 4.64v-9.27z" stroke="#6db1ff" stroke-width="3" fill="#6db1ff"/>
    <g>
      <use xlink:href="#s" transform="matrix(1,0,0,1,417.82201636544266,505.40427096894416) translate(0 16.56888888888889)"/>
      <use xlink:href="#t" transform="matrix(1,0,0,1,417.82201636544266,505.40427096894416) translate(88.42666666666666 16.56888888888889)"/>
      <use xlink:href="#u" transform="matrix(1,0,0,1,417.82201636544266,505.40427096894416) translate(150.20444444444445 16.56888888888889)"/>
    </g>
    <defs>
      <path fill="#3a414a" d="M427-450C332-341 227-207 149-78h286V0H38v-62c75-133 178-267 271-380H52v-78h375v70" id="v"/>
      <path fill="#3a414a" d="M175 0H82v-520h93V0zm13-675c0 35-26 61-60 61s-60-26-60-61 26-61 60-61 60 26 60 61" id="w"/>
      <path fill="#3a414a" d="M279-449c-36 1-74 4-104 10V0H82v-505c55-13 130-26 207-26 153 0 213 87 213 239V0h-93v-272c1-107-22-180-130-177" id="x"/>
      <path fill="#3a414a" d="M447-14c-35 17-88 26-139 26C139 12 53-90 53-259c0-187 118-299 319-268 23 4 46 10 67 19l-21 79c-28-13-66-22-107-22-111 1-162 75-161 192 1 118 51 189 170 189 43 1 87-10 114-22" id="y"/>
      <path fill="#3a414a" d="M28-343h247v87H28v-87" id="z"/>
      <path fill="#3a414a" d="M490-520c-69 78-147 159-220 234 93 75 176 181 240 286H401c-59-95-136-186-226-250V0H82v-760l93-16v474c70-69 142-144 206-218h109" id="A"/>
      <path fill="#3a414a" d="M494-528c0 86-50 135-103 171 79 37 120 96 120 177 0 132-91 195-228 195C147 15 57-49 57-175c0-91 56-141 114-179-65-37-98-92-98-165 0-121 86-190 211-190s210 64 210 181zM245-324c-53 30-94 73-94 150 0 74 53 109 133 112 98 3 162-77 121-168-25-57-90-78-160-94zm64-59c51-32 92-67 92-146 0-64-47-98-117-103-109-8-151 120-85 191 26 28 64 47 110 58" id="B"/>
      <path fill="#3a414a" d="M59-97c36 13 83 32 144 30 63-2 112-9 112-63 0-99-160-93-221-153-24-24-44-52-44-100 0-151 196-178 331-127l-17 80c-60-35-257-49-214 69 69 92 264 59 259 227-2 107-89 146-206 146C133 12 82-2 42-17" id="C"/>
      <g id="a">
        <use transform="matrix(0.022222222222222223,0,0,0.022222222222222223,0,0)" xlink:href="#v"/>
        <use transform="matrix(0.022222222222222223,0,0,0.022222222222222223,10.555555555555555,0)" xlink:href="#w"/>
        <use transform="matrix(0.022222222222222223,0,0,0.022222222222222223,16.266666666666666,0)" xlink:href="#x"/>
        <use transform="matrix(0.022222222222222223,0,0,0.022222222222222223,29.11111111111111,0)" xlink:href="#y"/>
        <use transform="matrix(0.022222222222222223,0,0,0.022222222222222223,38.82222222222222,0)" xlink:href="#z"/>
        <use transform="matrix(0.022222222222222223,0,0,0.022222222222222223,45.55555555555556,0)" xlink:href="#A"/>
        <use transform="matrix(0.022222222222222223,0,0,0.022222222222222223,57.24444444444445,0)" xlink:href="#B"/>
        <use transform="matrix(0.022222222222222223,0,0,0.022222222222222223,69.86666666666667,0)" xlink:href="#C"/>
      </g>
      <path fill="#3a414a" d="M294-70c109-2 147-79 149-189 2-113-59-188-165-189-45 0-73 2-103 10v328c24 19 73 42 119 40zm-15-461c169 5 261 102 261 272C540-98 465 6 306 12c-51 2-103-18-131-35v208H82v-689c54-12 122-29 197-27" id="D"/>
      <path fill="#3a414a" d="M82-498c73-28 204-47 296-18l-16 81c-44-19-138-19-187-2V0H82v-498" id="E"/>
      <path fill="#3a414a" d="M297-533c160 0 244 110 244 273S457 13 297 13 53-97 53-260s84-273 244-273zm0 464c98 0 147-85 147-191s-49-191-147-191-147 85-147 191S199-69 297-69" id="F"/>
      <path fill="#3a414a" d="M278-449c-36 0-74 4-103 10V0H82v-505c94-23 290-55 347 27 41-28 96-52 166-53 149-3 194 91 194 239V0h-93v-272c0-100-11-177-111-177-50 0-96 17-119 35 30 114 10 276 16 414h-93v-272c0-99-12-179-111-177" id="G"/>
      <path fill="#3a414a" d="M315 12C141 9 53-87 53-259c0-164 81-274 237-274 163 0 227 118 216 298H150c9 108 58 165 175 165 54 0 101-11 133-25l13 78c-33 16-99 31-156 29zm95-322c8-101-82-177-178-132-47 22-73 71-80 132h258" id="H"/>
      <path fill="#3a414a" d="M257 11C121 11 76-66 76-201v-464l93-16v161h197v78H169v240c-1 80 17 131 96 131 43 0 79-13 103-23l18 77c-27 12-82 28-129 28" id="I"/>
      <path fill="#3a414a" d="M279-449c-38 1-76 8-104 17V0H82v-760l93-16v266c32-12 72-21 114-21 153-1 213 87 213 239V0h-93v-272c1-107-22-181-130-177" id="J"/>
      <path fill="#3a414a" d="M300-71c36 0 74-3 103-10v-439h93v505C441-2 367 11 290 11 138 11 76-78 76-228v-292h93v272c2 116 24 177 131 177" id="K"/>
      <g id="b">
        <use transform="matrix(0.022222222222222223,0,0,0.022222222222222223,0,0)" xlink:href="#D"/>
        <use transform="matrix(0.022222222222222223,0,0,0.022222222222222223,13.177777777777779,0)" xlink:href="#E"/>
        <use transform="matrix(0.022222222222222223,0,0,0.022222222222222223,21.84444444444445,0)" xlink:href="#F"/>
        <use transform="matrix(0.022222222222222223,0,0,0.022222222222222223,35.04444444444445,0)" xlink:href="#G"/>
        <use transform="matrix(0.022222222222222223,0,0,0.022222222222222223,54.266666666666666,0)" xlink:href="#H"/>
        <use transform="matrix(0.022222222222222223,0,0,0.022222222222222223,66.77777777777779,0)" xlink:href="#I"/>
        <use transform="matrix(0.022222222222222223,0,0,0.022222222222222223,75.80000000000001,0)" xlink:href="#J"/>
        <use transform="matrix(0.022222222222222223,0,0,0.022222222222222223,88.57777777777778,0)" xlink:href="#H"/>
        <use transform="matrix(0.022222222222222223,0,0,0.022222222222222223,101.08888888888889,0)" xlink:href="#K"/>
        <use transform="matrix(0.022222222222222223,0,0,0.022222222222222223,113.93333333333334,0)" xlink:href="#C"/>
        <use transform="matrix(0.022222222222222223,0,0,0.022222222222222223,123.93333333333334,0)" xlink:href="#z"/>
        <use transform="matrix(0.022222222222222223,0,0,0.022222222222222223,130.66666666666666,0)" xlink:href="#A"/>
        <use transform="matrix(0.022222222222222223,0,0,0.022222222222222223,142.35555555555555,0)" xlink:href="#B"/>
        <use transform="matrix(0.022222222222222223,0,0,0.022222222222222223,154.9777777777778,0)" xlink:href="#C"/>
      </g>
      <path fill="#6db1ff" d="M81-163c48 25 108 46 188 44 62-1 111-12 112-72 0-23-11-42-32-57-53-39-186-63-239-114-33-32-63-73-61-139 5-145 106-205 255-208 84-2 154 22 205 48l-45 123c-41-20-85-38-150-38-76 0-124 32-96 95 68 68 209 75 272 145 33 36 48 78 52 146C554 42 206 52 37-39" id="L"/>
      <path fill="#6db1ff" d="M319 14C139 11 45-85 45-263c0-194 140-304 348-269 24 4 46 12 68 21l-31 119c-29-11-61-20-102-20-89 0-131 62-131 149 0 96 36 150 137 149 40 0 85-8 115-21l21 122c-38 16-94 28-151 27" id="M"/>
      <path fill="#6db1ff" d="M70-498c86-33 237-58 342-19l-25 123c-45-13-116-24-168-8V0H70v-498" id="N"/>
      <path fill="#6db1ff" d="M183-166c-2 75 96 63 162 58v-113c-63-10-160-16-162 55zm-148 4c-1-153 163-182 310-156 2-69-30-99-103-98-49 0-104 8-139 21L84-515c50-14 111-24 175-25 152-2 229 65 229 215v310C426-2 349 12 261 11 129 9 36-30 35-162" id="O"/>
      <path fill="#6db1ff" d="M219-137c18 12 52 21 82 21 71 0 106-48 106-143 0-113-71-175-188-147v269zm66-401c176 0 274 99 274 275 0 162-70 273-230 273-44 0-78-9-110-23v198H70v-693c62-18 137-30 215-30" id="P"/>
      <path fill="#6db1ff" d="M323 14C144 14 45-83 45-259c0-170 90-275 252-281 176-6 262 133 239 326H198c8 66 67 100 145 100 51 0 111-11 145-26l20 121C460 2 393 14 323 14zm72-330c13-111-157-138-187-38-4 12-8 25-10 38h197" id="Q"/>
      <g id="c">
        <use transform="matrix(0.017777777777777778,0,0,0.017777777777777778,0,0)" xlink:href="#L"/>
        <use transform="matrix(0.017777777777777778,0,0,0.017777777777777778,10.346666666666666,0)" xlink:href="#M"/>
        <use transform="matrix(0.017777777777777778,0,0,0.017777777777777778,19.235555555555557,0)" xlink:href="#N"/>
        <use transform="matrix(0.017777777777777778,0,0,0.017777777777777778,26.560000000000002,0)" xlink:href="#O"/>
        <use transform="matrix(0.017777777777777778,0,0,0.017777777777777778,36.391111111111115,0)" xlink:href="#P"/>
        <use transform="matrix(0.017777777777777778,0,0,0.017777777777777778,47.128888888888895,0)" xlink:href="#Q"/>
      </g>
      <path fill="#6db1ff" d="M60 0c12-231 25-481 55-693h149c67 125 131 277 188 413 58-137 121-288 188-413h142c30 212 43 462 55 693H685c-5-147-10-313-23-460-51 119-108 254-159 372H394c-51-118-108-253-159-372-13 147-18 313-23 460H60" id="R"/>
      <path fill="#6db1ff" d="M273 12C125 12 65-67 65-215v-442l149-24v155h179v124H214v185c2 63 16 104 83 103 34 0 71-7 96-17l21 116c-41 16-81 27-141 27" id="S"/>
      <path fill="#6db1ff" d="M219 0H70v-526h149V0zm-75-766c49 0 89 36 89 88s-40 88-89 88-89-36-89-88 40-88 89-88" id="T"/>
      <path fill="#6db1ff" d="M64-139c45 18 98 32 157 32 46 0 72-1 75-39-14-53-105-62-152-89-51-30-89-66-91-145-5-167 225-188 368-133l-26 116c-36-12-75-23-125-23-84 0-86 59-30 82 96 39 207 59 204 194-2 116-97 158-224 158C148 14 81-2 39-18" id="U"/>
      <g id="d">
        <use transform="matrix(0.017777777777777778,0,0,0.017777777777777778,0,0)" xlink:href="#R"/>
        <use transform="matrix(0.017777777777777778,0,0,0.017777777777777778,15.946666666666667,0)" xlink:href="#Q"/>
        <use transform="matrix(0.017777777777777778,0,0,0.017777777777777778,26.32888888888889,0)" xlink:href="#S"/>
        <use transform="matrix(0.017777777777777778,0,0,0.017777777777777778,34.22222222222222,0)" xlink:href="#N"/>
        <use transform="matrix(0.017777777777777778,0,0,0.017777777777777778,41.724444444444444,0)" xlink:href="#T"/>
        <use transform="matrix(0.017777777777777778,0,0,0.017777777777777778,46.86222222222222,0)" xlink:href="#M"/>
        <use transform="matrix(0.017777777777777778,0,0,0.017777777777777778,55.75111111111111,0)" xlink:href="#U"/>
      </g>
      <path fill="#3a414a" d="M571-481c0 104-59 163-144 191 67 84 137 186 186 290H507c-51-97-115-192-181-272-45 2-94 0-141 1V0H88v-683c49-13 125-17 184-17 175 0 299 58 299 219zm-102-1c0-139-153-139-284-130v261c140 0 284 11 284-131" id="V"/>
      <path fill="#3a414a" d="M173-151c-3 59 26 79 78 83l-13 78C129 7 80-30 80-136v-624l93-16v625" id="W"/>
      <path fill="#3a414a" d="M139-156c0 106 132 93 220 82v-155c-78-22-220-23-220 73zm-94 1c-2-152 173-180 314-148 5-94-26-150-117-150-50 0-101 8-132 20l-11-77c32-13 99-23 151-23 135 0 201 66 200 199V-9C390 1 319 11 247 11 126 11 46-34 45-155" id="X"/>
      <g id="e">
        <use transform="matrix(0.022222222222222223,0,0,0.022222222222222223,0,0)" xlink:href="#V"/>
        <use transform="matrix(0.022222222222222223,0,0,0.022222222222222223,14.066666666666666,0)" xlink:href="#H"/>
        <use transform="matrix(0.022222222222222223,0,0,0.022222222222222223,26.577777777777772,0)" xlink:href="#W"/>
        <use transform="matrix(0.022222222222222223,0,0,0.022222222222222223,32.733333333333334,0)" xlink:href="#X"/>
        <use transform="matrix(0.022222222222222223,0,0,0.022222222222222223,44.422222222222224,0)" xlink:href="#I"/>
        <use transform="matrix(0.022222222222222223,0,0,0.022222222222222223,53.44444444444445,0)" xlink:href="#w"/>
        <use transform="matrix(0.022222222222222223,0,0,0.022222222222222223,59.155555555555544,0)" xlink:href="#F"/>
        <use transform="matrix(0.022222222222222223,0,0,0.022222222222222223,72.35555555555555,0)" xlink:href="#x"/>
      </g>
      <path fill="#3a414a" d="M272-700c239 0 385 113 385 353S511 6 272 6C213 6 137 2 88-11v-672c49-13 125-17 184-17zM185-82c28 2 55 3 95 3 179 2 274-95 274-268s-95-270-274-268c-40 0-67 1-95 3v530" id="Y"/>
      <g id="f">
        <use transform="matrix(0.022222222222222223,0,0,0.022222222222222223,0,0)" xlink:href="#Y"/>
        <use transform="matrix(0.022222222222222223,0,0,0.022222222222222223,15.622222222222224,0)" xlink:href="#X"/>
        <use transform="matrix(0.022222222222222223,0,0,0.022222222222222223,27.311111111111114,0)" xlink:href="#I"/>
        <use transform="matrix(0.022222222222222223,0,0,0.022222222222222223,36.33333333333333,0)" xlink:href="#X"/>
      </g>
      <path fill="#3a414a" d="M677 91c1 136 41 195 171 195h213v139H796c-186-8-294-116-294-303v-351c-3-164-120-222-275-232v-137c155-10 275-69 275-231v-352c6-189 106-303 294-303h265v139H848c-126-3-171 67-171 195v346c-5 158-108 234-231 274 128 36 231 115 231 274V91" id="Z"/>
      <use transform="matrix(0.006510416666666664,0,0,0.006510416666666664,0,0)" xlink:href="#Z" id="h"/>
      <path fill="#3a414a" d="M908-845H766l-40-639h224zm-449 0H318l-41-639h224" id="aa"/>
      <path fill="#3a414a" d="M904-1102c199 0 220 177 220 381V0H956v-686c-3-114 0-215-60-264-70-33-125-4-158 71-26 56-39 140-39 252V0H531v-686c-3-114-1-215-61-264-78-41-136 24-157 84-24 69-39 159-39 259V0H105c-3-360 6-732-6-1082h149c6 50 3 123 8 175 36-100 83-195 216-195 135 0 166 79 196 196 42-105 93-196 236-196" id="ab"/>
      <path fill="#3a414a" d="M617-1102c355 0 481 238 477 599H322c5 222 84 388 301 388 144 0 244-59 284-166l158 45C1002-72 854 20 623 20c-342 0-490-220-490-568 0-346 151-554 484-554zm291 461c-18-192-90-328-289-328-194 0-287 128-295 328h584" id="ac"/>
      <path fill="#3a414a" d="M682 16c-209 0-323-80-324-285v-671H190v-142h170l58-282h120v282h432v142H538v652c2 114 60 155 182 155 106 0 209-16 297-34v137C921-4 806 16 682 16" id="ad"/>
      <path fill="#3a414a" d="M839-1102c70 0 148 7 206 17v167c-112-18-268-36-363 15-129 69-208 203-208 395V0H294c-10-367 32-789-52-1082h171c21 75 41 161 48 250h5c67-152 152-270 373-270" id="ae"/>
      <path fill="#3a414a" d="M745-142h380V0H143v-142h422v-798H246v-142h499v940zM545-1292v-192h200v192H545" id="af"/>
      <path fill="#3a414a" d="M631 20c-350 0-501-215-501-562 0-355 162-560 502-560 250 0 399 118 446 323l-192 14c-23-124-109-196-262-196-242 0-305 171-305 415 1 245 61 427 304 427 151 0 248-77 267-215l190 12C1039-107 883 20 631 20" id="ag"/>
      <path fill="#3a414a" d="M873-819c-18-114-119-146-250-146-163 0-245 50-245 151 0 151 170 148 294 185 182 54 388 94 388 320 0 240-189 325-439 329-245 4-410-69-454-268l159-31c24 133 136 168 295 165 144-2 270-31 270-171 0-164-195-160-331-202-167-52-350-87-350-299 0-218 173-315 413-313 220 2 373 77 412 260" id="ah"/>
      <path fill="#3a414a" d="M-5 220v-96h1238v96H-5" id="ai"/>
      <path fill="#3a414a" d="M698-1104c312 3 392 244 392 558 0 315-82 566-392 566-169 0-277-65-331-184h-5c8 188 2 394 4 589H185V-858c0-76-1-156-6-224h175c6 52 9 120 10 178h4c58-122 150-202 330-200zm-49 991c225 0 255-203 255-433 0-225-32-419-253-419-236 0-285 192-285 441 0 237 53 411 283 411" id="aj"/>
      <path fill="#3a414a" d="M1000-272c3 95 12 159 101 161 21 0 41-3 59-7V-6c-44 10-86 16-139 16-141 2-191-84-197-217h-6C748-76 648 20 446 20c-207 0-318-120-318-322 0-266 194-348 454-354l236-4c12-191-40-305-222-305-140 0-220 47-232 172l-188-17c33-204 181-292 423-292 255 0 401 118 401 364v466zm-683-27c0 109 63 184 175 182 166-3 259-96 306-217 24-65 20-120 20-200-232 7-501-28-501 235" id="ak"/>
      <path fill="#3a414a" d="M648-963c-190 6-283 138-283 336V0H185v-1484h181c-2 197 6 404-9 587h3c62-120 159-205 339-205 242 0 351 135 350 381V0H868v-695c1-168-57-273-220-268" id="al"/>
      <path fill="#3a414a" d="M496 0v-299h235V0H496zm0-783v-299h235v299H496" id="am"/>
      <g id="j">
        <use transform="matrix(0.006510416666666664,0,0,0.006510416666666664,0,0)" xlink:href="#aa"/>
        <use transform="matrix(0.006510416666666664,0,0,0.006510416666666664,8.00130208333333,0)" xlink:href="#ab"/>
        <use transform="matrix(0.006510416666666664,0,0,0.006510416666666664,16.00260416666666,0)" xlink:href="#ac"/>
        <use transform="matrix(0.006510416666666664,0,0,0.006510416666666664,24.003906249999993,0)" xlink:href="#ad"/>
        <use transform="matrix(0.006510416666666664,0,0,0.006510416666666664,32.00520833333332,0)" xlink:href="#ae"/>
        <use transform="matrix(0.006510416666666664,0,0,0.006510416666666664,40.00651041666665,0)" xlink:href="#af"/>
        <use transform="matrix(0.006510416666666664,0,0,0.006510416666666664,48.00781249999998,0)" xlink:href="#ag"/>
        <use transform="matrix(0.006510416666666664,0,0,0.006510416666666664,56.0091145833333,0)" xlink:href="#ah"/>
        <use transform="matrix(0.006510416666666664,0,0,0.006510416666666664,64.01041666666664,0)" xlink:href="#ai"/>
        <use transform="matrix(0.006510416666666664,0,0,0.006510416666666664,72.01171874999997,0)" xlink:href="#aj"/>
        <use transform="matrix(0.006510416666666664,0,0,0.006510416666666664,80.0130208333333,0)" xlink:href="#ak"/>
        <use transform="matrix(0.006510416666666664,0,0,0.006510416666666664,88.01432291666663,0)" xlink:href="#ad"/>
        <use transform="matrix(0.006510416666666664,0,0,0.006510416666666664,96.01562499999996,0)" xlink:href="#al"/>
        <use transform="matrix(0.006510416666666664,0,0,0.006510416666666664,104.01692708333329,0)" xlink:href="#aa"/>
        <use transform="matrix(0.006510416666666664,0,0,0.006510416666666664,112.0182291666666,0)" xlink:href="#am"/>
      </g>
      <path fill="#3a414a" d="M114 20l821-1504h178L296 20H114" id="an"/>
      <path fill="#3a414a" d="M259 363l169-662h265L382 363H259" id="ao"/>
      <g id="k">
        <use transform="matrix(0.006510416666666664,0,0,0.006510416666666664,0,0)" xlink:href="#aa"/>
        <use transform="matrix(0.006510416666666664,0,0,0.006510416666666664,8.00130208333333,0)" xlink:href="#an"/>
        <use transform="matrix(0.006510416666666664,0,0,0.006510416666666664,16.00260416666666,0)" xlink:href="#ab"/>
        <use transform="matrix(0.006510416666666664,0,0,0.006510416666666664,24.003906249999993,0)" xlink:href="#ac"/>
        <use transform="matrix(0.006510416666666664,0,0,0.006510416666666664,32.00520833333332,0)" xlink:href="#ad"/>
        <use transform="matrix(0.006510416666666664,0,0,0.006510416666666664,40.00651041666665,0)" xlink:href="#ae"/>
        <use transform="matrix(0.006510416666666664,0,0,0.006510416666666664,48.00781249999998,0)" xlink:href="#af"/>
        <use transform="matrix(0.006510416666666664,0,0,0.006510416666666664,56.0091145833333,0)" xlink:href="#ag"/>
        <use transform="matrix(0.006510416666666664,0,0,0.006510416666666664,64.01041666666664,0)" xlink:href="#ah"/>
        <use transform="matrix(0.006510416666666664,0,0,0.006510416666666664,72.01171874999997,0)" xlink:href="#aa"/>
        <use transform="matrix(0.006510416666666664,0,0,0.006510416666666664,80.0130208333333,0)" xlink:href="#ao"/>
      </g>
      <path fill="#3a414a" d="M615-1102c343 0 484 203 482 560-1 347-147 562-488 562-336 0-475-219-479-562-4-349 156-560 485-560zm-8 989c240 0 301-180 301-429 0-245-55-427-290-427-236 0-299 181-299 427 0 243 61 429 288 429" id="ap"/>
      <path fill="#3a414a" d="M706-1102c241 0 344 136 343 381V0H868v-695c1-168-57-273-220-268-190 6-283 138-283 336V0H185c-3-360 6-732-6-1082h170c4 54 7 126 8 185h3c63-121 164-204 346-205" id="aq"/>
      <path fill="#3a414a" d="M839-1335c-182-6-269 67-259 253h491v142H580V0H400v-940H138v-142h262c-15-293 132-408 418-402 94 2 200 7 281 21v145c-75-10-177-14-260-17" id="ar"/>
      <path fill="#3a414a" d="M1048-32c-2 300-135 456-433 456-222-1-358-88-400-267l184-25c22 99 100 157 222 156 184-2 248-125 248-315 0-64 3-133-2-194C807-100 706-13 524-12c-306 0-381-228-381-537 0-318 85-550 400-550 164 0 271 83 325 202h3c1-60 3-134 12-185h171c-13 339-4 702-6 1050zM585-145c210-8 284-178 284-406 0-192-52-331-177-392-33-16-69-22-104-22-223 2-259 184-259 414 0 229 31 415 256 406" id="as"/>
      <g id="l">
        <use transform="matrix(0.006510416666666664,0,0,0.006510416666666664,0,0)" xlink:href="#aa"/>
        <use transform="matrix(0.006510416666666664,0,0,0.006510416666666664,8.00130208333333,0)" xlink:href="#ah"/>
        <use transform="matrix(0.006510416666666664,0,0,0.006510416666666664,16.00260416666666,0)" xlink:href="#ad"/>
        <use transform="matrix(0.006510416666666664,0,0,0.006510416666666664,24.003906249999993,0)" xlink:href="#ak"/>
        <use transform="matrix(0.006510416666666664,0,0,0.006510416666666664,32.00520833333332,0)" xlink:href="#ad"/>
        <use transform="matrix(0.006510416666666664,0,0,0.006510416666666664,40.00651041666665,0)" xlink:href="#af"/>
        <use transform="matrix(0.006510416666666664,0,0,0.006510416666666664,48.00781249999998,0)" xlink:href="#ag"/>
        <use transform="matrix(0.006510416666666664,0,0,0.006510416666666664,56.0091145833333,0)" xlink:href="#ai"/>
        <use transform="matrix(0.006510416666666664,0,0,0.006510416666666664,64.01041666666664,0)" xlink:href="#ag"/>
        <use transform="matrix(0.006510416666666664,0,0,0.006510416666666664,72.01171874999997,0)" xlink:href="#ap"/>
        <use transform="matrix(0.006510416666666664,0,0,0.006510416666666664,80.0130208333333,0)" xlink:href="#aq"/>
        <use transform="matrix(0.006510416666666664,0,0,0.006510416666666664,88.01432291666663,0)" xlink:href="#ar"/>
        <use transform="matrix(0.006510416666666664,0,0,0.006510416666666664,96.01562499999996,0)" xlink:href="#af"/>
        <use transform="matrix(0.006510416666666664,0,0,0.006510416666666664,104.01692708333329,0)" xlink:href="#as"/>
        <use transform="matrix(0.006510416666666664,0,0,0.006510416666666664,112.0182291666666,0)" xlink:href="#ah"/>
        <use transform="matrix(0.006510416666666664,0,0,0.006510416666666664,120.01953124999993,0)" xlink:href="#aa"/>
        <use transform="matrix(0.006510416666666664,0,0,0.006510416666666664,128.0208333333333,0)" xlink:href="#am"/>
      </g>
      <path fill="#3a414a" d="M410 425v-1909h547v139H590V286h367v139H410" id="at"/>
      <g id="m">
        <use transform="matrix(0.006510416666666664,0,0,0.006510416666666664,0,0)" xlink:href="#at"/>
        <use transform="matrix(0.006510416666666664,0,0,0.006510416666666664,8.00130208333333,0)" xlink:href="#Z"/>
      </g>
      <g id="o">
        <use transform="matrix(0.006510416666666664,0,0,0.006510416666666664,0,0)" xlink:href="#aa"/>
        <use transform="matrix(0.006510416666666664,0,0,0.006510416666666664,8.00130208333333,0)" xlink:href="#ad"/>
        <use transform="matrix(0.006510416666666664,0,0,0.006510416666666664,16.00260416666666,0)" xlink:href="#ak"/>
        <use transform="matrix(0.006510416666666664,0,0,0.006510416666666664,24.003906249999993,0)" xlink:href="#ae"/>
        <use transform="matrix(0.006510416666666664,0,0,0.006510416666666664,32.00520833333332,0)" xlink:href="#as"/>
        <use transform="matrix(0.006510416666666664,0,0,0.006510416666666664,40.00651041666665,0)" xlink:href="#ac"/>
        <use transform="matrix(0.006510416666666664,0,0,0.006510416666666664,48.00781249999998,0)" xlink:href="#ad"/>
        <use transform="matrix(0.006510416666666664,0,0,0.006510416666666664,56.0091145833333,0)" xlink:href="#ah"/>
        <use transform="matrix(0.006510416666666664,0,0,0.006510416666666664,64.01041666666664,0)" xlink:href="#aa"/>
        <use transform="matrix(0.006510416666666664,0,0,0.006510416666666664,72.01171874999997,0)" xlink:href="#am"/>
      </g>
      <path fill="#3a414a" d="M671-1188l264-103 45 132-282 73 185 250-119 72-150-258-156 256-119-72 189-248-280-73 45-134 267 107-12-297h136" id="au"/>
      <path fill="#3a414a" d="M1060-1016c0 191-128 285-295 323v4c154 18 262 91 313 209 14 35 21 72 21 110 0 277-194 390-478 390-292 0-457-129-493-382l186-17c24 161 121 250 307 250 172 1 298-80 291-247-8-208-220-239-446-233v-156c217 9 409-34 409-232 0-152-102-225-264-225-159 0-264 88-278 233l-181-14c33-239 196-367 461-367 264 0 447 102 447 354" id="av"/>
      <path fill="#3a414a" d="M148-1120c216-7 379-89 463-229h166v1204h353V0H157v-145h439v-1021c-79 124-254 184-448 194v-148" id="aw"/>
      <path fill="#3a414a" d="M1065-1013c47 164 49 500-1 665C999-130 875 20 611 20c-377 0-484-300-487-695-2-245 41-425 141-551 77-98 191-144 352-144 261 0 386 140 448 357zM741-155c199-92 203-504 159-785-26-168-96-284-283-284-281 0-308 256-311 549-2 181 18 324 80 428 46 77 115 118 227 120 47 0 90-10 128-28" id="ax"/>
      <path fill="#3a414a" d="M270 425V286h367v-1631H270v-139h547V425H270" id="ay"/>
      <g id="p">
        <use transform="matrix(0.006510416666666664,0,0,0.006510416666666664,0,0)" xlink:href="#at"/>
        <use transform="matrix(0.006510416666666664,0,0,0.006510416666666664,8.00130208333333,0)" xlink:href="#aa"/>
        <use transform="matrix(0.006510416666666664,0,0,0.006510416666666664,16.00260416666666,0)" xlink:href="#au"/>
        <use transform="matrix(0.006510416666666664,0,0,0.006510416666666664,24.003906249999993,0)" xlink:href="#am"/>
        <use transform="matrix(0.006510416666666664,0,0,0.006510416666666664,32.00520833333332,0)" xlink:href="#av"/>
        <use transform="matrix(0.006510416666666664,0,0,0.006510416666666664,40.00651041666665,0)" xlink:href="#aw"/>
        <use transform="matrix(0.006510416666666664,0,0,0.006510416666666664,48.00781249999998,0)" xlink:href="#ax"/>
        <use transform="matrix(0.006510416666666664,0,0,0.006510416666666664,56.0091145833333,0)" xlink:href="#ax"/>
        <use transform="matrix(0.006510416666666664,0,0,0.006510416666666664,64.01041666666664,0)" xlink:href="#aa"/>
        <use transform="matrix(0.006510416666666664,0,0,0.006510416666666664,72.01171874999997,0)" xlink:href="#ay"/>
      </g>
      <path fill="#3a414a" d="M726 122c-7 187-108 303-294 303H167V286h213c129-2 172-59 172-195v-347c5-160 106-236 230-276-125-36-230-116-230-272v-346c2-128-45-195-172-195H167v-139h265c187 7 294 114 294 303v352c4 162 120 221 275 231v137c-155 10-275 68-275 232v351" id="az"/>
      <g id="q">
        <use transform="matrix(0.006510416666666664,0,0,0.006510416666666664,0,0)" xlink:href="#az"/>
        <use transform="matrix(0.006510416666666664,0,0,0.006510416666666664,8.00130208333333,0)" xlink:href="#ay"/>
      </g>
      <use transform="matrix(0.006510416666666664,0,0,0.006510416666666664,0,0)" xlink:href="#az" id="r"/>
      <path fill="#6db1ff" d="M628-38C575-8 488 14 396 14 170 14 50-120 50-347c0-295 267-433 542-323 12 5 21 11 26 14l-45 126c-44-23-101-43-171-41-128 4-190 86-190 221 0 139 59 224 198 226 72 0 128-15 175-39" id="aA"/>
      <path fill="#6db1ff" d="M304-540c166 0 258 108 258 276 0 170-90 278-258 278S45-95 45-264c0-168 94-276 259-276zm0 426c75 0 106-68 106-150s-31-148-106-148-107 66-107 148 32 150 107 150" id="aB"/>
      <path fill="#6db1ff" d="M285-411c-21 0-48 2-66 5V0H70v-508c57-16 146-30 224-30 161 0 230 83 230 241V0H375v-279c-2-87-10-129-90-132" id="aC"/>
      <path fill="#6db1ff" d="M70-554C56-744 252-822 429-751l-29 119c-23-11-56-18-87-18-75-1-100 46-94 124h184v124H219V0H70v-554" id="aD"/>
      <path fill="#6db1ff" d="M375-413c-107-27-178 30-178 133 0 83 34 125 101 125 30 0 58-10 77-20v-238zm-62-125c77 0 150 13 211 30v442c-1 176-89 254-268 254-67 0-134-14-185-31L97 32c47 18 95 30 161 30 84 0 121-38 117-119-31 14-62 22-105 22-148 1-228-95-225-245 3-167 100-258 268-258" id="aE"/>
      <path fill="#6db1ff" d="M304-115c21 0 48-2 66-5v-406h149v508C462-2 373 12 295 12 133 12 65-74 65-233v-293h149v275c2 86 11 133 90 136" id="aF"/>
      <g id="s">
        <use transform="matrix(0.017777777777777778,0,0,0.017777777777777778,0,0)" xlink:href="#aA"/>
        <use transform="matrix(0.017777777777777778,0,0,0.017777777777777778,11.306666666666667,0)" xlink:href="#aB"/>
        <use transform="matrix(0.017777777777777778,0,0,0.017777777777777778,22.09777777777778,0)" xlink:href="#aC"/>
        <use transform="matrix(0.017777777777777778,0,0,0.017777777777777778,32.56888888888889,0)" xlink:href="#aD"/>
        <use transform="matrix(0.017777777777777778,0,0,0.017777777777777778,40.284444444444446,0)" xlink:href="#T"/>
        <use transform="matrix(0.017777777777777778,0,0,0.017777777777777778,45.422222222222224,0)" xlink:href="#aE"/>
        <use transform="matrix(0.017777777777777778,0,0,0.017777777777777778,55.982222222222234,0)" xlink:href="#aF"/>
        <use transform="matrix(0.017777777777777778,0,0,0.017777777777777778,66.45333333333333,0)" xlink:href="#N"/>
        <use transform="matrix(0.017777777777777778,0,0,0.017777777777777778,73.77777777777777,0)" xlink:href="#Q"/>
      </g>
      <g id="t">
        <use transform="matrix(0.017777777777777778,0,0,0.017777777777777778,0,0)" xlink:href="#L"/>
        <use transform="matrix(0.017777777777777778,0,0,0.017777777777777778,10.346666666666666,0)" xlink:href="#M"/>
        <use transform="matrix(0.017777777777777778,0,0,0.017777777777777778,19.235555555555557,0)" xlink:href="#N"/>
        <use transform="matrix(0.017777777777777778,0,0,0.017777777777777778,26.560000000000002,0)" xlink:href="#O"/>
        <use transform="matrix(0.017777777777777778,0,0,0.017777777777777778,36.391111111111115,0)" xlink:href="#P"/>
        <use transform="matrix(0.017777777777777778,0,0,0.017777777777777778,47.128888888888895,0)" xlink:href="#Q"/>
      </g>
      <path fill="#6db1ff" d="M196-119c81-1 106-37 107-122v-452h156v460c0 165-82 247-251 247-84 0-150-24-198-55l52-121c37 20 78 43 134 43" id="aG"/>
      <path fill="#6db1ff" d="M219-119c117 28 188-35 188-148 0-96-35-144-106-144-30 0-64 9-82 21v271zm110-418c161 0 230 111 230 274 0 176-97 276-274 276-78 0-153-12-215-30v-735l149-24v262c32-14 66-23 110-23" id="aH"/>
      <g id="u">
        <use transform="matrix(0.017777777777777778,0,0,0.017777777777777778,0,0)" xlink:href="#aG"/>
        <use transform="matrix(0.017777777777777778,0,0,0.017777777777777778,9.404444444444444,0)" xlink:href="#aB"/>
        <use transform="matrix(0.017777777777777778,0,0,0.017777777777777778,20.195555555555554,0)" xlink:href="#aH"/>
        <use transform="matrix(0.017777777777777778,0,0,0.017777777777777778,30.93333333333333,0)" xlink:href="#U"/>
      </g>
    </defs>
  </g>
</svg>
